# xmcd
#
# Track frame offsets:
#	150
#	22770
#	42797
#	63770
#	83425
#	102160
#	121352
#	142507
#	161359
#	181720
#	199260
#	220645
#	241917
#	260307
#	283382
#	304217
#
# Disc length: 4313 seconds
#
# Revision: 22
# Processed by: cddbd v1.5.2PL0 Copyright (c) Steve Scherf et al.
# Submitted via: EasyCDDAExtractor 15.3.0.1
#
DISCID=c410d710
DTITLE=Gloria Estefan - Gloria!
DYEAR=1998
DGENRE=Pop
TTITLE0=Heaven's What I Feel
TTITLE1=Don't Stop
TTITLE2=Oye
TTITLE3=Real Woman
TTITLE4=Feelin'
TTITLE5=Don't Release Me
TTITLE6=Don't Let This Moment End
TTITLE7=Touched By An Angel
TTITLE8=Lucky Girl
TTITLE9=I Just Wanna Be Happy
TTITLE10=Cuba Libre
TTITLE11=Feelin' (Love To Infinity Remix) (Bonus Track)
TTITLE12=Don't Release Me (Wyclef Jean Remix) (Bonus Track)
TTITLE13=Heaven's What I Feel (Corazon Prohibido) (Bonus Track)
TTITLE14=Cuba Libre (Spanish) (Pablo Flores Remix) (Bonus Track)
TTITLE15=Oye (Spanish) (Pablo Flores Remix) (Bonus Track)
EXTD=GLORIA ESTEFAN - GLORIA!\n\nEpic - Sony\nEPC 489850 2
EXTT0=
EXTT1=
EXTT2=
EXTT3=
EXTT4=
EXTT5=
EXTT6=
EXTT7=
EXTT8=
EXTT9=
EXTT10=
EXTT11=
EXTT12=
EXTT13=
EXTT14=
EXTT15=
PLAYORDER=
